<svg width="370.1851851851852" height="66.12084188075954" viewBox="0 0 370.1851851851852 66.12084188075954" xmlns="http://www.w3.org/2000/svg" role="img" aria-labelledby="logoTitle logoDesc">
  <title id="logoTitle">GalaxyLogic</title>
  <desc id="logoDesc">GalaxyLogic wordmark and icon in the site brand style.</desc>
  <defs>
    <linearGradient id="logoIconGradient" x1="0" y1="1" x2="1" y2="0">
      <stop offset="0" stop-color="#0B5F74" />
      <stop offset="0.5" stop-color="#0E7490" />
      <stop offset="1" stop-color="#155E75" />
    </linearGradient>
    <linearGradient id="logoTextGradient" x1="0" y1="0" x2="1" y2="0">
      <stop offset="0" stop-color="#0B5F74" />
      <stop offset="0.5" stop-color="#0E7490" />
      <stop offset="1" stop-color="#155E75" />
    </linearGradient>
  </defs>

  <g transform="matrix(0.34633617170272823,0,0,0.34633617170272823,-25.96655922961558,-16.741122994553578)" fill="url(#logoIconGradient)">
    <path d="M262.1,163.849c-0.412-8.09-7.304-14.314-15.394-13.902c-6.169,0.315-11.243,4.402-13.126,9.911l-22.317-3.312c0.039-0.736,0.061-1.476,0.061-2.221c0-22.92-18.58-41.5-41.5-41.5c-6.539,0-12.721,1.517-18.223,4.21l-20.082-37.374c2.842-2.153,5.063-5.178,6.168-8.853c2.776-9.223-2.451-18.95-11.674-21.726c-9.223-2.775-18.95,2.451-21.726,11.674c-2.776,9.223,2.451,18.95,11.673,21.725c3.637,1.095,7.346,0.929,10.682-0.219l20.166,37.529c-9.361,6.251-16.032,16.207-17.928,27.771l-23.998-1.236c-0.564-7.759-7.022-13.882-14.925-13.882c-8.274,0-14.982,6.708-14.982,14.981c0,8.274,6.708,14.982,14.982,14.982c6.741,0,12.44-4.454,14.321-10.579l24.077,1.239c-0.012,0.418-0.032,0.834-0.032,1.256c0,14.214,7.149,26.753,18.044,34.233l-19.076,19.068c-2.854-2.038-6.337-3.25-10.111-3.251c-9.632-0.002-17.441,7.805-17.443,17.437s7.805,17.441,17.437,17.443c9.632,0.002,17.441-7.805,17.443-17.437c0.001-3.862-1.269-7.419-3.393-10.309l20.063-20.056c5.58,2.792,11.872,4.371,18.536,4.371c20.328,0,37.23-14.619,40.796-33.915l22.185,3.292c0.002,0.046-0.002,0.092,0,0.138c0.412,8.09,7.304,14.314,15.395,13.902C256.288,178.831,262.511,171.938,262.1,163.849z M118.514,73.997c-4.537-1.365-7.107-6.15-5.742-10.686c1.365-4.537,6.149-7.108,10.686-5.743s7.107,6.15,5.742,10.687S123.051,75.362,118.514,73.997z M89.957,156.158c-4.823,0-8.732-3.91-8.732-8.732s3.909-8.731,8.732-8.731c4.822,0,8.731,3.909,8.731,8.731S94.779,156.158,89.957,156.158z M117.175,230.641c-4.874-0.001-8.825-3.954-8.824-8.827c0-4.875,3.953-8.826,8.827-8.825c2.292,0.001,4.374,0.883,5.942,2.316l0.568,0.568c1.433,1.569,2.313,3.651,2.313,5.944C126.002,226.691,122.049,230.642,117.175,230.641z M169.823,180.008c-14.186,0-25.685-11.499-25.685-25.684c0-14.186,11.499-25.685,25.685-25.685c14.185,0,25.684,11.499,25.684,25.685C195.506,168.509,184.007,180.008,169.823,180.008z M247.817,171.769c-3.963,0.202-7.339-2.847-7.541-6.81c-0.202-3.962,2.847-7.338,6.809-7.54c3.963-0.202,7.339,2.847,7.541,6.81C254.828,168.191,251.78,171.567,247.817,171.769z" />
  </g>

  <g transform="matrix(2.625531006941161,0,0,2.625531006941161,82.4794907591558,-5.8102899415946325)" fill="url(#logoTextGradient)">
    <path d="M7.78 13.98 l0 -1.66 l6.3 0 l0 7.68 l-1.26 0 l-0.46 -1.86 c-0.98 1.36 -2.78 2.24 -4.74 2.24 c-2.46 0 -3.66 -0.9 -4.4 -1.62 c-2.2 -2.08 -2.26 -4.54 -2.26 -6.06 c0 -3.5 2.12 -7.44 6.8 -7.44 c2.68 0 5.66 1.52 6.08 4.74 l-1.88 0 c-0.62 -2.5 -2.72 -3.02 -4.3 -3.02 c-2.58 0 -4.7 2.06 -4.7 5.82 c0 2.92 0.96 5.92 4.78 5.92 c0.72 0 1.88 -0.08 2.94 -0.92 c1.26 -1 1.58 -2.28 1.58 -3.82 l-4.48 0 z M18.42 12.72 l-1.62 0 c0.08 -2.5 1.74 -3.48 4.32 -3.48 c0.84 0 3.88 0.24 3.88 2.92 l0 6.02 c0 0.44 0.22 0.62 0.58 0.62 c0.16 0 0.38 -0.04 0.58 -0.08 l0 1.28 c-0.3 0.08 -0.56 0.2 -0.96 0.2 c-1.56 0 -1.8 -0.8 -1.86 -1.6 c-0.68 0.74 -1.74 1.7 -3.78 1.7 c-1.92 0 -3.28 -1.22 -3.28 -3.02 c0 -0.88 0.26 -2.92 3.18 -3.28 l2.9 -0.36 c0.42 -0.04 0.92 -0.2 0.92 -1.24 c0 -1.1 -0.8 -1.7 -2.46 -1.7 c-2 0 -2.28 1.22 -2.4 2.02 z M23.24 16.38 l0 -1.72 c-0.28 0.22 -0.72 0.38 -2.9 0.66 c-0.86 0.12 -2.24 0.38 -2.24 1.7 c0 1.14 0.58 1.82 1.9 1.82 c1.64 0 3.24 -1.06 3.24 -2.46 z M29.78 5.64 l0 14.36 l-1.76 0 l0 -14.36 l1.76 0 z M33.98 12.72 l-1.62 0 c0.08 -2.5 1.74 -3.48 4.32 -3.48 c0.84 0 3.88 0.24 3.88 2.92 l0 6.02 c0 0.44 0.22 0.62 0.58 0.62 c0.16 0 0.38 -0.04 0.58 -0.08 l0 1.28 c-0.3 0.08 -0.56 0.2 -0.96 0.2 c-1.56 0 -1.8 -0.8 -1.86 -1.6 c-0.68 0.74 -1.74 1.7 -3.78 1.7 c-1.92 0 -3.28 -1.22 -3.28 -3.02 c0 -0.88 0.26 -2.92 3.18 -3.28 l2.9 -0.36 c0.42 -0.04 0.92 -0.2 0.92 -1.24 c0 -1.1 -0.8 -1.7 -2.46 -1.7 c-2 0 -2.28 1.22 -2.4 2.02 z M38.8 16.38 l0 -1.72 c-0.28 0.22 -0.72 0.38 -2.9 0.66 c-0.86 0.12 -2.24 0.38 -2.24 1.7 c0 1.14 0.58 1.82 1.9 1.82 c1.64 0 3.24 -1.06 3.24 -2.46 z M48.36 14.62 l3.68 5.38 l-2.24 0 l-2.6 -3.94 l-2.52 3.94 l-2.22 0 l3.68 -5.38 l-3.5 -5.08 l2.26 0 l2.42 3.68 l2.42 -3.68 l2.16 0 z M57.28 18.06 l2.8 -8.52 l1.94 0 c-1.22 3.42 -2.42 6.84 -3.76 10.26 c-1.66 4.24 -1.84 4.48 -4.1 4.48 c-0.26 0 -0.46 -0.08 -0.74 -0.16 l0 -1.6 c0.22 0.08 0.58 0.18 1.06 0.18 c0.92 0 1.02 -0.26 1.86 -2.42 l-3.88 -10.74 l2 0 l2.78 8.52 l0.04 0 z M65.7 5.64 l0 12.64 l7.28 0 l0 1.72 l-9.22 0 l0 -14.36 l1.94 0 z M74.06 14.76 c0 -2.7 1.52 -5.52 4.86 -5.52 s4.86 2.82 4.86 5.52 s-1.52 5.52 -4.86 5.52 s-4.86 -2.82 -4.86 -5.52 z M75.88 14.76 c0 1.4 0.52 4 3.04 4 s3.04 -2.6 3.04 -4 s-0.52 -4 -3.04 -4 s-3.04 2.6 -3.04 4 z M87.1 14.74 c0 2.3 0.9 4.04 2.82 4.04 c1.12 0 2.86 -0.74 2.86 -3.52 c0 -1.7 -0.28 -4.44 -2.82 -4.44 c-2.72 0 -2.86 2.58 -2.86 3.92 z M94.46 9.54 l0 9.6 c0 1.5 -0.02 5.26 -4.86 5.26 c-1.24 0 -3.66 -0.34 -4 -3.12 l1.76 0 c0.32 1.66 1.94 1.66 2.36 1.66 c3.04 0 2.98 -2.44 2.98 -3.68 l0 -0.44 l-0.04 0 l0 0.08 c-0.46 0.74 -1.38 1.4 -2.78 1.4 c-3.56 0 -4.6 -3.34 -4.6 -5.84 c0 -2.94 1.58 -5.22 4.36 -5.22 c1.9 0 2.7 1.18 3.12 1.78 l0.04 0 l0 -1.48 l1.66 0 z M98.7 9.54 l0 10.46 l-1.76 0 l0 -10.46 l1.76 0 z M98.7 7.64 l-1.76 0 l0 -2 l1.76 0 l0 2 z M109.58 13.06 l-1.7 0 c-0.22 -1.4 -1 -2.24 -2.48 -2.24 c-2.18 0 -2.88 2.08 -2.88 3.94 c0 1.8 0.44 4.02 2.86 4.02 c1.18 0 2.2 -0.88 2.5 -2.48 l1.7 0 c-0.18 1.66 -1.2 4 -4.26 4 c-2.94 0 -4.68 -2.22 -4.68 -5.24 c0 -3.24 1.56 -5.82 5.02 -5.82 c2.74 0 3.78 2 3.92 3.82 z" stroke="#0F172A" stroke-width="0.22" stroke-linejoin="round" paint-order="stroke fill" />
  </g>
</svg>
